<svg version="1" xmlns="http://www.w3.org/2000/svg" width="24" height="24" viewBox="0 0 24 24"><path d="M23.03 16.553l-10.665-5.333c.066-.183.179-.349.302-.402 1.221-.519 2.14-2.067 2.14-2.818 0-1.654-1.346-3-3-3s-3 1.346-3 3c0 .276.224.5.5.5s.5-.224.5-.5c0-1.102.898-2 2-2 1.103 0 2 .898 2 2 0 .302-.635 1.518-1.53 1.898-.515.218-.824.762-.924 1.27l-10.832 5.422c-.453.315-.632.884-.454 1.448.18.575.678.962 1.24.962h21c.561 0 1.059-.387 1.239-.961.177-.564-.001-1.134-.516-1.486zm-.438 1.186c-.03.097-.125.261-.285.261h-21c-.161 0-.255-.164-.285-.261-.018-.054-.062-.236.009-.292l10.776-5.389 10.714 5.352c.132.093.087.275.071.329z" style="fill:#464646;"/></svg>