<svg version="1" xmlns="http://www.w3.org/2000/svg" width="24" height="24" viewBox="0 0 24 24"><g><path d="M15 0c-3.309 0-6 2.691-6 6v.05c-2.244.253-4 2.14-4 4.45v1c0 .276.224.5.5.5h8c.276 0 .5-.224.5-.5v-1c0-2.31-1.756-4.197-4-4.45v-.05c0-2.757 2.243-5 5-5s5 2.243 5 5v18h1v-18c0-3.309-2.691-6-6-6zm-2 10.5v.5h-7v-.5c0-1.93 1.57-3.5 3.5-3.5s3.5 1.57 3.5 3.5zM9.5 14.5c-.276 0-.5.224-.5.5v2c0 .276.224.5.5.5s.5-.224.5-.5v-2c0-.276-.224-.5-.5-.5zM9.5 20.5c-.276 0-.5.224-.5.5v2c0 .276.224.5.5.5s.5-.224.5-.5v-2c0-.276-.224-.5-.5-.5zM13.678 16.947l-.316-1.976c-.043-.272-.297-.458-.573-.415-.273.043-.458.3-.415.573l.316 1.976c.039.246.252.421.493.421l.08-.006c.273-.043.459-.3.415-.573zM13.738 20.482c-.273.044-.458.3-.415.572l.315 1.976c.039.246.251.421.493.421l.079-.006c.273-.043.458-.3.415-.572l-.315-1.976c-.043-.272-.301-.462-.572-.415zM6.128 14.557c-.274-.044-.529.142-.573.415l-.316 1.976c-.044.272.142.529.414.573l.08.006c.241 0 .454-.175.493-.421l.316-1.976c.044-.273-.142-.529-.414-.573zM5.18 20.482c-.272-.042-.529.142-.573.415l-.316 1.976c-.043.273.142.529.415.573l.08.006c.242 0 .454-.175.493-.421l.316-1.976c.043-.273-.142-.53-.415-.573z" style="fill:#464646;"/></g></svg>