<svg version="1" xmlns="http://www.w3.org/2000/svg" width="24" height="24" viewBox="0 0 24 24"><path d="M23.5 16h-3.5v-1h1c1.103 0 2-.897 2-2s-.897-2-2-2h-1v-1h1c1.103 0 2-.897 2-2s-.897-2-2-2h-18c-1.102 0-2 .897-2 2s.898 2 2 2h1v1h-1c-1.102 0-2 .897-2 2s.898 2 2 2h1v1h-3.5c-.276 0-.5.224-.5.5v3c0 .276.224.5.5.5h1.5v3.5c0 .276.224.5.5.5s.5-.224.5-.5v-.5h18v.5c0 .276.224.5.5.5s.5-.224.5-.5v-3.5h1.5c.276 0 .5-.224.5-.5v-3c0-.276-.224-.5-.5-.5zm-21.5-8c0-.551.448-1 1-1h18c.552 0 1 .449 1 1s-.448 1-1 1h-18c-.552 0-1-.449-1-1zm3 2h14v1h-14v-1zm-3 3c0-.551.448-1 1-1h18c.552 0 1 .449 1 1s-.448 1-1 1h-18c-.552 0-1-.449-1-1zm3 2h14v1h-14v-1zm16 7h-18v-2h18v2zm2-3h-22v-2h22v2z" style="fill:#464646;"/></svg>