<svg version="1" xmlns="http://www.w3.org/2000/svg" width="24" height="24" viewBox="0 0 24 24"><g><path d="M11.5 5c-3.584 0-6.5 2.916-6.5 6.5 0 2.831 1.832 5.318 4.5 6.179v.821c0 .276.224.5.5.5h3c.276 0 .5-.224.5-.5v-.821c2.669-.861 4.5-3.348 4.5-6.179 0-3.584-2.916-6.5-6.5-6.5zm1.375 11.819c-.221.057-.375.256-.375.484v.697h-2v-.697c0-.228-.154-.427-.375-.484-2.429-.626-4.125-2.814-4.125-5.319 0-3.033 2.468-5.5 5.5-5.5s5.5 2.467 5.5 5.5c0 2.505-1.696 4.692-4.125 5.319zM12 22h-1c-.276 0-.5.224-.5.5s.224.5.5.5h1c.276 0 .5-.224.5-.5s-.224-.5-.5-.5zM13 20h-3c-.276 0-.5.224-.5.5s.224.5.5.5h3c.276 0 .5-.224.5-.5s-.224-.5-.5-.5zM11.5 4c.276 0 .5-.224.5-.5v-2c0-.276-.224-.5-.5-.5s-.5.224-.5.5v2c0 .276.224.5.5.5zM21.5 11h-2c-.276 0-.5.224-.5.5s.224.5.5.5h2c.276 0 .5-.224.5-.5s-.224-.5-.5-.5zM3.5 11h-2c-.276 0-.5.224-.5.5s.224.5.5.5h2c.276 0 .5-.224.5-.5s-.224-.5-.5-.5zM5.489 6.197c.098.098.226.146.354.146.128 0 .256-.049.353-.146.195-.195.195-.512 0-.707l-2.122-2.122c-.195-.195-.512-.195-.707 0-.195.195-.195.512 0 .707l2.122 2.122zM17.155 6.344c.128 0 .256-.049.354-.146l2.122-2.122c.195-.195.195-.512 0-.707-.195-.195-.512-.195-.707 0l-2.122 2.121c-.195.195-.195.512 0 .707.097.098.225.147.353.147z" style="fill:#464646;"/></g></svg>