<svg version="1" xmlns="http://www.w3.org/2000/svg" width="24" height="24" viewBox="0 0 24 24"><g><path d="M17.854 15.147l-.162-.108-.192-.039h-14.262l1.6-4h4.112c.276 0 .5-.224.5-.5s-.223-.5-.499-.5h-4.451c-.205 0-.388.124-.464.314l-1.962 4.905-1.927 1.927c-.094.094-.147.221-.147.354v4c0 .276.224.5.5.5h.5v1.5c0 .276.224.5.5.5h3c.276 0 .5-.224.5-.5v-1.5h10v1.5c0 .276.224.5.5.5h3c.276 0 .5-.224.5-.5v-1.5h.5c.276 0 .5-.224.5-.5v-4c0-.133-.053-.26-.146-.354l-2-1.999zm-13.854 7.853h-2v-1h2v1zm14 0h-2v-1h2v1zm.5-2h-17.5v-1h4c.276 0 .5-.224.5-.5s-.224-.5-.5-.5h-4v-1.293l1.707-1.707h14.586l1.707 1.707v1.293h-4c-.276 0-.5.224-.5.5s.224.5.5.5h4v1h-.5zM17 0c-3.86 0-7 3.141-7 7s3.14 7 7 7 7-3.141 7-7-3.14-7-7-7zm0 13c-3.309 0-6-2.691-6-6s2.691-6 6-6 6 2.691 6 6-2.691 6-6 6zM17.5 3h-2c-.276 0-.5.224-.5.5v7c0 .276.224.5.5.5s.5-.224.5-.5v-2.5h1.5c1.378 0 2.5-1.121 2.5-2.5s-1.122-2.5-2.5-2.5zm0 4h-1.5v-3h1.5c.827 0 1.5.673 1.5 1.5s-.673 1.5-1.5 1.5z" style="fill:#464646;"/></g></svg>