<svg version="1" xmlns="http://www.w3.org/2000/svg" width="24" height="24" viewBox="0 0 24 24"><g><path d="M16 7c0-2.206-1.794-4-4-4s-4 1.794-4 4 1.794 4 4 4 4-1.794 4-4zm-7 0c0-1.654 1.346-3 3-3s3 1.346 3 3-1.346 3-3 3-3-1.346-3-3zM12 22.024c.168 0 .325-.084.417-.225.284-.429 6.938-10.551 6.938-14.443 0-4.056-3.299-7.356-7.355-7.356s-7.356 3.3-7.356 7.356c0 3.892 6.655 14.015 6.939 14.443.092.141.249.225.417.225zm0-21.024c3.504 0 6.355 2.851 6.355 6.356 0 3.066-4.88 10.936-6.355 13.247-1.476-2.31-6.356-10.181-6.356-13.247 0-3.505 2.852-6.356 6.356-6.356zM17.042 19.201c-.265-.027-.517.181-.54.456-.024.275.181.517.456.54 4.558.384 5.93 1.123 6.051 1.255-.294.555-4.224 1.548-11.009 1.548s-10.715-.993-11.009-1.452c.121-.227 1.483-.963 6.01-1.348.275-.023.479-.265.456-.54-.023-.275-.264-.489-.541-.456-4.589.39-6.916 1.163-6.916 2.296 0 2.43 10.772 2.5 12 2.5s12-.07 12-2.5c0-1.137-2.341-1.911-6.958-2.299z" style="fill:#464646;"/></g></svg>