<svg version="1" xmlns="http://www.w3.org/2000/svg" width="24" height="24" viewBox="0 0 24 24"><path d="M22.5 4h-22c-.276 0-.5.224-.5.5v15c0 .276.224.5.5.5h22c.276 0 .5-.224.5-.5v-15c0-.276-.224-.5-.5-.5zm-11.5 10.45c-1.14-.233-2-1.242-2-2.45s.86-2.217 2-2.45v4.9zm1-4.9c1.14.232 2 1.242 2 2.45s-.86 2.217-2 2.45v-4.9zm-11-1.55h3v8h-3v-8zm0 9h3.5c.276 0 .5-.224.5-.5v-9c0-.276-.224-.5-.5-.5h-3.5v-2h10v3.55c-1.692.246-3 1.691-3 3.45s1.308 3.204 3 3.45v3.55h-10v-2zm11 2v-3.55c1.692-.245 3-1.691 3-3.45s-1.308-3.204-3-3.45v-3.55h10v2h-3.5c-.276 0-.5.224-.5.5v9c0 .276.224.5.5.5h3.5v2h-10zm10-3h-3v-8h3v8z" style="fill:#464646;"/></svg>