<svg version="1" xmlns="http://www.w3.org/2000/svg" width="24" height="24" viewBox="0 0 24 24"><path d="M22.5 3h-1.5v-2.5c0-.276-.224-.5-.5-.5h-2c-.276 0-.5.224-.5.5v4.5h-1v-1.5c0-.276-.224-.5-.5-.5h-8c-.276 0-.5.224-.5.5v1.5h-3v-4.5c0-.276-.224-.5-.5-.5h-2c-.276 0-.5.224-.5.5v2.5h-1.5c-.276 0-.5.224-.5.5v6c0 .276.224.5.5.5h1.5v2.5c0 .276.224.5.5.5h2c.276 0 .5-.224.5-.5v-4.5h1v2.5c0 1.177.817 2.166 1.914 2.431l-1.906 10.479c-.027.146.013.297.108.41.095.115.236.18.384.18h10.02c.276 0 .5-.224.5-.5 0-.08-.019-.156-.052-.223l-1.693-9.311c-.148-.814.112-1.647.696-2.229.663-.665 1.029-1.548 1.029-2.486v-1.251h1v4.5c0 .276.224.5.5.5h2c.276 0 .5-.224.5-.5v-2.5h1.5c.276 0 .5-.224.5-.5v-6c0-.276-.224-.5-.5-.5zm-21.5 6v-5h1v5h-1zm3 3h-1v-11h1v11zm1-6h3v1h-3v-1zm11 3.251c0 .672-.262 1.303-.736 1.778-.815.814-1.18 1.979-.973 3.115l1.61 8.856h-8.802l1.893-10.41c.027-.146-.013-.297-.108-.41-.095-.115-.236-.18-.384-.18-.827 0-1.5-.673-1.5-1.5v-2.5h1.5c.276 0 .5-.224.5-.5v-3.5h1v3c0 .276.224.5.5.5s.5-.224.5-.5v-3h1v3c0 .276.224.5.5.5s.5-.224.5-.5v-3h1v3c0 .276.224.5.5.5s.5-.224.5-.5v-3h1v5.251zm1-2.251v-1h1v1h-1zm3 5h-1v-11h1v11zm2-3h-1v-5h1v5z"/></svg>