<svg version="1" xmlns="http://www.w3.org/2000/svg" width="24" height="24" viewBox="0 0 24 24"><g><path style="fill:#464646;" d="M12 0c-6.617 0-12 5.383-12 12s5.383 12 12 12 12-5.383 12-12-5.383-12-12-12zm0 23c-6.065 0-11-4.935-11-11s4.935-11 11-11 11 4.935 11 11-4.935 11-11 11zM13.716 13.011c.176-.298.284-.641.284-1.011 0-1.103-.897-2-2-2v-3.5c0-.276-.224-.5-.5-.5s-.5.224-.5.5v3.778c-.595.347-1 .984-1 1.722 0 1.103.897 2 2 2 .369 0 .711-.107 1.008-.283l4.638 4.636c.098.098.226.147.354.147s.256-.049.354-.146c.195-.195.195-.512 0-.707l-4.638-4.636zm-2.716-1.011c0-.551.449-1 1-1s1 .449 1 1c0 .273-.111.519-.288.699l-.009.006-.005.007c-.18.177-.426.288-.698.288-.551 0-1-.449-1-1z"/></g></svg>